<svg xmlns:svg="http://www.w3.org/2000/svg" xmlns="http://www.w3.org/2000/svg" width="800" height="8000" version="1.1"><style>.s0{fill:#008000;}.s1{-inkscape-font-specification:Sans Bold;fill:#008000;font-weight:bold;}.s2{fill:none;stroke-linecap:round;stroke-linejoin:round;stroke:#4e4e4e;}.s3{fill:#efa019;}.s4{fill:#803300;}.s5{-inkscape-font-specification:Liberation Sans Bold;fill:#ccc;font-family:Liberation Sans;font-weight:bold;letter-spacing:-0.3;line-height:96;text-align:end;text-anchor:end;}</style><defs><filter x="0" y="0" width="1" height="1" color-interpolation-filters="sRGB"><feFlood result="result1" flood-opacity="0" flood-color="rgb(128,128,128)"/><feBlend in2="SourceGraphic" mode="normal" result="result2"/><feComposite in2="SourceGraphic" k2="1" operator="arithmetic" result="result3" k1="0" k3="0" k4="0"/><feComposite in2="SourceGraphic" operator="in"/></filter></defs><g transform="translate(0,6947.6378)"><g transform="translate(3.9293195e-6,-5750.7239)"><g transform="matrix(0.68756459,0,0,0.62842996,124.97416,90.765167)" fill="#008000"><g transform="matrix(1.1293741,0,0,1.1909948,-53.341423,101.42952)" fill="#008000"><path d="m359.1 108.3-2-0.8 2-0.3c2.6-0.4 5-1.6 4.6-2.1-0.2-0.2-0.6-0.4-1-0.4-0.7 0-3.4-2.2-3.4-2.8 0-0.2 0.3-0.3 0.8-0.1 1.2 0.4 0.9-0.1-1-1.8-2.1-1.9-2.3-3.1-0.7-3.1 1 0 1-0.1 0.3-0.8-1.1-1.1-1.6-3.1-1.2-4.6l0.3-1.2 1.8 1.4c2.3 1.8 5.3 3.2 7.8 3.6l2 0.3 0.3-1.9c0.6-3.5 5.3-5.5 8.4-3.5 1.1 0.7 1.7 0.7 3.9-0.1 0.9-0.3 0.9-0.2-0.3 0.9l-1.3 1.3 1.4-0.2 1.4-0.2-1.2 1.2c-0.8 0.8-1.4 2-1.6 3.5-0.8 5.3-4.7 10.1-9.9 11.9-3.6 1.2-8.9 1.3-11.7 0.1zM399.7 86.1c-10.4 0-10 0.4-10 12.5l0 9.6 1.4 1.2 1.4 1.2 9.5 0c9 0 9.6 0 10.6-1 1.7-1.5 1.9-2.8 1.9-11.1 0-12.4 0-12.4-12.6-12.4-0.8 0-1.5 0-2.2 0zm7.5 2.7 2.2 0.1 2.2 0.1 0.1 2.2 0.1 2.2-2.3 0-2.3 0 0-2.3 0-2.3zm-5.3 5.5c2.3 0 4.4 2 4.4 4.3 0 1.2-0.3 2-1.3 3-1 1-1.8 1.3-3 1.3-2.3 0-4.4-2-4.4-4.3 0-2.3 2-4.3 4.4-4.3zm-10.4 1.8 2 0 2 0-0.1 2.2c-0.4 6.4 7.3 9.3 11.9 4.4 1-1 1.1-1.7 1.1-3.9l0-2.7 2 0 2 0 0 5.4c0 5.3 0 5.4-1.2 6.4l0 0c-1.1 0.9-1.8 0.9-9.1 0.9-10.4 0-10 0.3-10.3-7.2l-0.2-5.5zM424.5 108.4c1 0.8 1.8 0.4 3.1-1.6l1.1-1.7 2.1 0.7c1.2 0.4 2.1 0.8 2.2 0.8 0 0-0.2 0.8-0.6 1.7-0.8 1.9-0.1 3.6 1.5 3.5 0.7 0 1.2-0.5 2.1-1.9 1.1-1.7 1.2-1.8 2.5-1.4 1.7 0.6 3.1 0 3.5-1.5 0.3-1 0.1-1.3-1.5-2.2l-1.8-1.1 1-2.4 1-2.4 1.5 0.5c1.7 0.6 3.4-0.3 3.5-2 0-0.7-0.3-1.2-1.5-2-1.4-0.9-1.6-1.1-1.1-2 0.3-0.6 0.5-1.5 0.5-2.2 0.1-2.7-2.3-2.6-4.1 0.2l-1.2 1.9-2.1-0.7c-1.2-0.4-2.1-0.8-2.1-0.9 0-0.1 0.3-1 0.7-2.1 0.6-1.7 0.6-2-0.5-2.7-1.2-0.8-1.2-0.8-2.9 1.2-1.6 1.9-1.8 2-3.1 1.6-1.7-0.5-2.8 0.1-3.2 1.6-0.2 0.9 0 1.2 1.5 2.2l1.8 1.1-1 2.3-1 2.3-1.8-0.5c-1.4-0.4-2-0.3-2.6 0.4-1.1 1.4-0.8 2.6 0.9 3.6 1.4 0.8 1.5 0.9 0.9 2.5-0.4 1.3-0.3 1.9 0.3 2.6 0.1 0.1 0.2 0.2 0.3 0.3zm6.2-7.3c-0.5-0.4-0.3-0.9 0.3-2.1 0.5-1.1 1-2.2 1.1-2.5 0.1-0.4 0.9-0.3 2 0.1 1 0.4 2 0.8 2.3 0.9 0.3 0.1 0.1 1.1-0.5 2.6l-1.1 2.4-1.5-0.4c-1.5-0.4-2.3-0.6-2.7-1z" fill="#008000"/></g></g><path d="m396.9 443.1 0-5.4-1.1 0c-1 0-1.1-0.1-1.1-1.8 0-1.6 0.1-1.8 1.1-1.8 0.9 0 1.1-0.2 1.4-2.1 0.2-1.1 0.5-2.4 0.8-2.9 0.6-1.1 3.1-1.9 5.5-1.9l2 0 0 1.8c0 1.8 0 1.8-1.7 1.9-1.6 0.1-1.7 0.2-1.8 1.6l-0.1 1.5 1.8 0 1.8 0 0 1.8c0 1.8 0 1.8-1.7 1.9l-1.7 0.1-0.1 5.3-0.1 5.3-2.4 0-2.4 0 0-5.4zM399 323 399 323c-3.7 0-7.3 0-7.6 0.1-0.9 0.2-1.6 0.7-2 1.5l-0.2 0.4 0 5.4 0 5.4 0.2 0.5c0.4 0.8 1 1.2 2.1 1.5l0.6 0.1 0 1.6c0 1.3 0 1.6 0.1 1.6 0 0 0.9-0.8 2-1.7l1.9-1.6 5.3 0 5.3 0 0.4-0.2c0.6-0.3 1.1-0.8 1.4-1.3l0.2-0.5 0-5.3 0-5.3-0.2-0.4c-0.3-0.8-1.1-1.4-2-1.6-0.3-0.1-3.9-0.1-7.6-0.1zm10.7 2.9c0 0-0.1 1.9-0.1 4.9 0 4.1 0 4.9-0.1 5.3-0.3 1.1-1.1 2-2.2 2.5l-0.4 0.2-5.2 0-5.2 0-0.6 0.5c-0.3 0.3-0.7 0.6-0.7 0.6-0.1 0.1 0 0.1 4.5 0.1l4.6 0 0.3 0.2c0.3 0.2 1.4 1.2 1.9 1.6 0.1 0.1 0.6 0.5 1 0.9l0.8 0.7 0-1.7 0-1.7 0.4-0.1c0.8-0.2 1.3-0.7 1.7-1.5l0.2-0.4 0-5.3 0-5.3-0.2-0.4c-0.2-0.4-0.7-1.1-0.9-1.1zm-16 0.3 1.3 0c1.2 0 1.3 0 1.5 0.2 0.5 0.5 0.3 1.4-0.4 1.8-0.2 0.1-0.4 0.1-1.5 0.1-1.2 0-1.3 0-1.2-0.1 0-0.1 0.1-0.6 0.2-1.1l0.2-1zm5.7 0 1.2 0 0.3 0.3c0.2 0.2 0.3 0.3 0.3 0.6 0 0.5-0.3 0.9-0.6 1.1-0.2 0.1-0.4 0.1-1.5 0.1-1 0-1.3 0-1.3-0.1 0-0.1 0.1-0.5 0.2-1 0.1-0.5 0.2-1 0.2-1 0 0 0.6 0 1.2 0zm4.1 1.9c1.2 0 1.4 0 1.7 0.4 0.4 0.5 0.1 1.3-0.6 1.7-0.2 0.1-0.5 0.1-1.5 0.1-0.7 0-1.2 0-1.2-0.1 0-0.1 0.4-2 0.5-2.1 0 0 0.5-0.1 1.1-0.1zm-10.4 1.3 1.2 0c1.3 0 1.5 0.1 1.7 0.5 0.1 0.3 0.1 0.7 0 1-0.1 0.3-0.5 0.6-0.7 0.7-0.1 0-0.7 0.1-1.4 0.1-1.4 0-1.3 0.1-1.1-0.8 0.1-0.3 0.2-0.8 0.2-1l0.1-0.4zm5.3 0c0.1 0 0.3 0 0.5 0 0.9 0 1.2 0.1 1.3 0.2 0.7 0.4 0.6 1.5-0.2 1.9-0.3 0.1-0.4 0.1-1.5 0.1-1 0-1.2 0-1.2-0.1 0-0.2 0.4-2 0.5-2.1 0 0 0.3 0 0.7 0zm3.3 2.1 1.2 0c1.1 0 1.2 0 1.4 0.2 0.3 0.2 0.5 0.6 0.4 1-0.1 0.4-0.4 0.7-0.7 0.8-0.2 0.1-0.6 0.1-1.5 0.1-1.2 0-1.3 0-1.2-0.1 0-0.1 0.1-0.6 0.2-1.1l0.2-0.9zm-4.7 1.3 1.1 0c0.9 0 1.1 0 1.4 0.1 0.5 0.2 0.7 0.8 0.4 1.3-0.2 0.3-0.3 0.5-0.7 0.6-0.2 0.1-0.5 0.1-1.5 0.1-1.1 0-1.2 0-1.2-0.1 0-0.1 0.1-0.4 0.2-0.8 0.1-0.4 0.2-0.8 0.2-1l0.1-0.3z" fill="#008000"/><g transform="matrix(0.68750842,0,0,0.73388966,124.99663,29.78188)" fill="#008000"><g transform="translate(-11.453744,0)" fill="#008000"><path d="m432.1 111.9c-3.3 0.1-6.6 1-9.5 3.1-6.6 4.6-9.1 11.6-6.6 18.3 1.3 3.5 1.3 3.7 0.1 7.5-1.4 4.4-1.4 4.3 4 2.9 3.4-0.9 4-0.9 6.9 0 10.8 3.4 22.1-3.3 23.3-13.9 1.1-10.4-8.4-18.2-18.2-18zm0.5 2.8c4.7 0 6.6 0.7 10.3 3.8 7.2 6.2 6 17-2.6 21.6-4 2.1-9 2.6-13 1.1-1.9-0.7-3.6-0.9-4.6-0.7-3.6 0.9-3.9 0.8-3.2-1.9 0.5-2 0.4-2.9-0.5-4.7-1.6-3.1-1.5-8.4 0.2-11.5 2.7-4.9 7.5-7.7 13.3-7.7zm-6 6.2c-1.3-0.1-2.5 1.3-2.5 3.7 0 3.5 3.9 8 9 10.3 3.3 1.5 5.9 1.6 7.5 0 1.8-1.7 1.7-2.3-1-3.5-2.2-1-2.4-1-3.6 0-1.2 1-1.5 1-3.3 0.1-1.1-0.5-2.6-1.8-3.4-2.8-1.2-1.5-1.3-2-0.6-3 0.6-0.9 0.6-1.6 0-3.1-0.6-1.3-1.4-1.9-2.1-1.9zM397.6 134.5 397.6 134.5c-2.6-7.8-13.2-17.5-19.2-17.5-1.1 0-1.6 0.4-3.6 2.3-1.3 1.3-2.3 2.4-2.3 2.5 0 0.2 6.2 3.8 6.6 3.8 0.1 0 0.8-0.5 1.5-1.2 1.5-1.4 2.1-1.3 4.6 0.4 2.9 2 7.1 7.3 7.1 9 0 0.2-0.6 1.1-1.3 1.9-0.7 0.9-1.2 1.7-1.1 1.8 0.1 0.1 0.9 1.7 1.9 3.4l1.7 3.1 2.5-2.6c2.8-2.9 2.9-3.2 1.6-7z" fill="#008000"/></g></g><path d="m411.1 529.7c-0.2 0.1-1.7 0.6-3.2 1.2l-2.8 1 0 11.5c0 9 0.1 11.5 0.4 11.3 0.2-0.1 1.7-0.6 3.2-1.2l2.8-1 0-11.5c0-9-0.1-11.5-0.4-11.3zm-14.8 0.3c-0.1 0-0.2 5.1-0.2 11.4l0 11.5 3.3 0.9c1.8 0.5 3.5 1 3.9 1 0.5 0 0.6-0.7 0.5-11.4l-0.1-11.4-3.5-1c-1.9-0.6-3.6-1-3.8-1zm-1.7 0.1c0 0-0.1 0-0.1 0-0.3 0.1-1.8 0.7-3.3 1.2l-2.7 1-0.1 11.4c-0.1 9 0 11.4 0.3 11.4 0.2 0 1.7-0.5 3.4-1.1l3-1.1 0-11.5c0-10.5 0-11.4-0.5-11.3zM396.9 636.1 396.9 636.1c-2.5 0.1-3.8 0.7-5.6 2.7-4.7 5.2-1 13.8 6 13.8 1.1 0 2.5-0.2 3.2-0.5l1.3-0.5 3.1 3.1c1.7 1.7 3.3 3.1 3.5 3.2 0.2 0.1 0.5 0.2 0.5 0.2 0.2 0.1 1.4-0.7 1.6-1 0.6-0.9 0-1.7-2.9-4.8l-3.2-3.3 0.6-2c1-3.1 0.5-5.8-1.7-8.2-1.8-2-3.1-2.6-6-2.6-0.2 0-0.3 0-0.5 0zm0.2 3.6c1.5-0.1 3.1 0.6 4.2 2.1 1.4 1.9 0.6 5.3-1.4 6.5-2.5 1.4-5.4 0.6-6.6-2-0.6-1.4-0.6-2.5 0.1-4 0.8-1.6 2.2-2.5 3.7-2.6z" fill="#008000"/><g transform="matrix(0.39366258,0,0,0.38159507,543.8471,812.33001)" style="fill:#008000;font-family:Sans;font-size:40;letter-spacing:0;line-height:125;word-spacing:0"><path d="m-412.7-173.4 7.5 0 0 23.5 13.2 0 0 5.7-20.7 0 0-29.2M-387.3-173.4l7.5 0 0 29.2-7.5 0 0-29.2M-387.3-173.4l7.5 0 0 29.2-7.5 0 0-29.2M-372.3-173.4l8.4 0 10.6 20 0-20 7.1 0 0 29.2-8.4 0-10.6-20 0 20-7.1 0 0-29.2M-338.8-173.4l20.3 0 0 5.7-12.8 0 0 5.4 12 0 0 5.7-12 0 0 6.7 13.2 0 0 5.7-20.7 0 0-29.2" class="s1"/></g></g><path d="m402.2-6767 0.5 0.7c0.7 1 0.6 1.9-0.2 2.7-0.8 0.8-1.8 1.3-5.5 2.5-7.2 2.5-10.3 5.4-10.6 10.1-0.1 1.1-0.1 1.9 0 1.9 0.1 0 0.7-0.4 1.3-0.8 3.1-2.3 6-3.4 13.7-5.4 3.2-0.8 6-2.4 6.5-3.9 0.4-1 0.1-2.4-0.6-3.5-0.8-1.2-2.7-3.1-4-3.8l-1-0.6zm8.9 7.8-0.4 0.6c-2.2 3.1-4.3 4.6-8.3 5.7-5.6 1.5-7.8 2.2-9.4 2.9-5.3 2.5-9.1 6.3-10.7 10.7-0.5 1.5-0.8 4.7-0.6 6.3l0.2 1 0.5-0.9c0.6-1.2 3.8-4 5.5-4.9 3-1.6 6.4-2.6 11.8-3.5 9.1-1.6 14.2-6.1 13.6-11.9-0.2-1.5-1-4.1-1.7-5.3l-0.4-0.7zm4.1 11.2c-0.1 0-0.3 0.4-0.5 0.8-0.4 1.2-2.4 3.5-4 4.6-1.7 1.2-4.8 2.7-7 3.2-0.9 0.2-2.8 0.6-4.3 0.9-3.9 0.7-5.9 1.2-8.1 2.2-2.7 1.2-3.8 1.9-5.6 3.6-4 3.8-5.2 9.7-2.9 15l0.5 1.2 0.7-1.1c0.8-1.4 1.8-2.3 3.5-3.3 2.7-1.7 6.6-2.9 11.3-3.6 3.2-0.5 5.2-0.9 7.2-1.5 6.7-2 11.1-5.8 12.2-10.5 0.5-2.4 0.4-4.6-0.5-7.1-0.4-1.2-2.2-4.4-2.4-4.4zm2 19c-0.1 0-0.3 0.2-0.6 0.6-2.2 2.7-7.7 4.8-16.5 6.2-5 0.8-6.3 1.1-8.4 2-5.9 2.5-8.3 6.7-6.5 11.6 0.6 1.5 0.8 1.8 1.8 3.3 0.3 0.4 0.5 0.7 0.5 0.7 0 0 0.3-0.4 0.6-1 1.6-2.9 6-4.8 11.2-4.8 2.1 0 5.6-0.5 7.6-1.1 6.3-1.9 10.2-6.3 10.9-12.5 0.1-1-0.2-3.9-0.5-4.8 0-0.1-0.1-0.2-0.2-0.2zm-2.1 16.6-0.8 0.7c-2.5 2.1-7.2 3.4-13.9 3.7-5.6 0.3-8 1.3-9.5 3.9-0.5 1-0.4 4.1 0.2 5.6 1.1 2.6 3.4 5.4 6.3 7.5 0.8 0.6 1.6 1.1 1.7 1.1 0.1 0 0.2-0.9 0.3-1.9 0.2-3.3 1.6-4.9 5.5-6.1 2.3-0.8 3.7-1.4 5.3-2.8 2.9-2.3 4.7-6.2 5-10.3l0.1-1.4z" fill="#b3b3b3"/><g transform="translate(3.6919125e-6,-6831.9232)"><path d="m402.2 418.6 0.5 0.7c0.7 1 0.6 1.9-0.2 2.7-0.8 0.8-1.8 1.3-5.5 2.5-7.2 2.5-10.3 5.4-10.6 10.1-0.1 1.1-0.1 1.9 0 1.9 0.1 0 0.7-0.4 1.3-0.8 3.1-2.3 6-3.4 13.7-5.4 3.2-0.8 6-2.4 6.5-3.9 0.4-1 0.1-2.4-0.6-3.5-0.8-1.2-2.7-3.1-4-3.8l-1-0.6zm8.9 7.8-0.4 0.6c-2.2 3.1-4.3 4.6-8.3 5.7-5.6 1.5-7.8 2.2-9.4 2.9-5.3 2.5-9.1 6.3-10.7 10.7-0.5 1.5-0.8 4.7-0.6 6.3l0.2 1 0.5-0.9c0.6-1.2 3.8-4 5.5-4.9 3-1.6 6.4-2.6 11.8-3.5 9.1-1.6 14.2-6.1 13.6-11.9-0.2-1.5-1-4.1-1.7-5.3l-0.4-0.7zm4.1 11.2c-0.1 0-0.3 0.4-0.5 0.8-0.4 1.2-2.4 3.5-4 4.6-1.7 1.2-4.8 2.7-7 3.2-0.9 0.2-2.8 0.6-4.3 0.9-3.9 0.7-5.9 1.2-8.1 2.2-2.7 1.2-3.8 1.9-5.6 3.6-4 3.8-5.2 9.7-2.9 15l0.5 1.2 0.7-1.1c0.8-1.4 1.8-2.3 3.5-3.3 2.7-1.7 6.6-2.9 11.3-3.6 3.2-0.5 5.2-0.9 7.2-1.5 6.7-2 11.1-5.8 12.2-10.5 0.5-2.4 0.4-4.6-0.5-7.1-0.4-1.2-2.2-4.4-2.4-4.4zm2 19c-0.1 0-0.3 0.2-0.6 0.6-2.2 2.7-7.7 4.8-16.5 6.2-5 0.8-6.3 1.1-8.4 2-5.9 2.5-8.3 6.7-6.5 11.6 0.6 1.5 0.8 1.8 1.8 3.3 0.3 0.4 0.5 0.7 0.5 0.7 0 0 0.3-0.4 0.6-1 1.6-2.9 6-4.8 11.2-4.8 2.1 0 5.6-0.5 7.6-1.1 6.3-1.9 10.2-6.3 10.9-12.5 0.1-1-0.2-3.9-0.5-4.8 0-0.1-0.1-0.2-0.2-0.2zm-2.1 16.6-0.8 0.7c-2.5 2.1-7.2 3.4-13.9 3.7-5.6 0.3-8 1.3-9.5 3.9-0.5 1-0.4 4.1 0.2 5.6 1.1 2.6 3.4 5.4 6.3 7.5 0.8 0.6 1.6 1.1 1.7 1.1 0.1 0 0.2-0.9 0.3-1.9 0.2-3.3 1.6-4.9 5.5-6.1 2.3-0.8 3.7-1.4 5.3-2.8 2.9-2.3 4.7-6.2 5-10.3l0.1-1.4z" class="s2"/><path d="m382.9 440.5-0.8 9.7c-0.6 8.1-0.6 9.7 0 10.1 0.4 0.2 0.7 0.9 0.7 1.5 0 0.6-0.4 1.2-0.9 1.4-0.7 0.2-0.9 1.6-1.4 8.3l-0.6 8.1 9 0.8 9 0.8 0.1-1.3c0.1-1.5 3-3.9 4.5-3.7 1.4 0.1 3.8 1.8 4.1 2.8 0.1 0.5 0.2 1.4 0.2 1.9-0.1 1 0.3 1.1 5.1 1.5l5.2 0.5 0.8-9.9c0.8-9.7 0.8-9.9-0.3-10.5-1.7-1-1.6-3.9 0.2-4.9 1.4-0.8 1.4-0.9 1.9-7.2l0.5-6.4-3.2-0.3c-2.9-0.3-3.3-0.2-3.8 0.9-0.4 0.8-1 1.1-2.2 1-1.1-0.1-1.7-0.5-2-1.4-0.4-1.3-0.4-1.3-13.2-2.4l-12.8-1.2zm8.1 2.4c1.3 0.1 3.5 2.4 3.9 4 0.6 2-0.7 4.8-2.6 5.6-0.8 0.4-2 0.6-2.5 0.6-2.2-0.2-4.5-3.1-4.4-5.4 0.2-2.6 3-5 5.5-4.8zm14.5 8.4c1.2 0.1 2 1.7 1.3 2.9-0.7 1.2-3.1 1.1-3.4-0.2-0.3-1.2 0.6-2.5 1.9-2.7 0.1 0 0.2 0 0.2 0zm-11.4 6.1c2.1 0.2 3.5 2.8 2 4.7-1.5 2-4.7 1.2-4.9-1.3-0.1-1.8 0.3-2.7 1.4-3.2 0.5-0.2 1-0.3 1.5-0.2zm14.2 7.8c0.7 0.1 1.3 0.5 2 1.4 1.4 1.8 1.4 3.1-0.1 4.5-2 1.9-4.9 0.8-5.3-2.1-0.2-1.2 0.1-1.8 1.2-2.7 0.9-0.8 1.6-1.2 2.2-1.1zm-22.8 7.2c1.6 0.1 3.1 1.5 3 3.3 0 0.6-0.4 1.4-0.8 1.9-1.3 1.5-3 1.4-4.3-0.2-1.4-1.7-1.4-2.5-0.2-4 0.6-0.7 1.4-1 2.2-1z" fill="#efa019"/></g><g transform="translate(3.6919125e-6,-6829.324)"><path d="m402.2 946.4 0.5 0.7c0.7 1 0.6 1.9-0.2 2.7-0.8 0.8-1.8 1.3-5.5 2.5-7.2 2.5-10.3 5.4-10.6 10.1-0.1 1.1-0.1 1.9 0 1.9 0.1 0 0.7-0.4 1.3-0.8 3.1-2.3 6-3.4 13.7-5.4 3.2-0.8 6-2.4 6.5-3.9 0.4-1 0.1-2.4-0.6-3.5-0.8-1.2-2.7-3.1-4-3.8l-1-0.6zm8.9 7.8-0.4 0.6c-2.2 3.1-4.3 4.6-8.3 5.7-5.6 1.5-7.8 2.2-9.4 2.9-5.3 2.5-9.1 6.3-10.7 10.7-0.5 1.5-0.8 4.7-0.6 6.3l0.2 1 0.5-0.9c0.6-1.2 3.8-4 5.5-4.9 3-1.6 6.4-2.6 11.8-3.5 9.1-1.6 14.2-6.1 13.6-11.9-0.2-1.5-1-4.1-1.7-5.3l-0.4-0.7zm4.1 11.2c-0.1 0-0.3 0.4-0.5 0.8-0.4 1.2-2.4 3.5-4 4.6-1.7 1.2-4.8 2.7-7 3.2-0.9 0.2-2.8 0.6-4.3 0.9-3.9 0.7-5.9 1.2-8.1 2.2-2.7 1.2-3.8 1.9-5.6 3.6-4 3.8-5.2 9.7-2.9 15l0.5 1.2 0.7-1.1c0.8-1.4 1.8-2.3 3.5-3.3 2.7-1.7 6.6-2.9 11.3-3.6 3.2-0.5 5.2-0.9 7.2-1.5 6.7-2 11.1-5.8 12.2-10.5 0.5-2.4 0.4-4.6-0.5-7.1-0.4-1.2-2.2-4.4-2.4-4.4zm2 19c-0.1 0-0.3 0.2-0.6 0.6-2.2 2.7-7.7 4.8-16.5 6.2-5 0.8-6.3 1.1-8.4 2-5.9 2.5-8.3 6.7-6.5 11.6 0.6 1.5 0.8 1.8 1.8 3.3 0.3 0.4 0.5 0.7 0.5 0.7 0 0 0.3-0.4 0.6-1 1.6-2.9 6-4.8 11.2-4.8 2.1 0 5.6-0.5 7.6-1.1 6.3-1.9 10.2-6.3 10.9-12.5 0.1-1-0.2-3.9-0.5-4.8 0-0.1-0.1-0.2-0.2-0.2zm-2.1 16.6-0.8 0.7c-2.5 2.1-7.2 3.4-13.9 3.7-5.6 0.3-8 1.3-9.5 3.9-0.5 1-0.4 4.1 0.2 5.6 1.1 2.6 3.4 5.4 6.3 7.5 0.8 0.6 1.6 1.1 1.7 1.1 0.1 0 0.2-0.9 0.3-1.9 0.2-3.3 1.6-4.9 5.5-6.1 2.3-0.8 3.7-1.4 5.3-2.8 2.9-2.3 4.7-6.2 5-10.3l0.1-1.4z" class="s2"/><g transform="matrix(0.29617851,0,0,0.29338218,517.92977,450.29197)"><path d="m-407.6 1901.4-1.5-6c-1.8-7.4-4.3-11.7-8.2-14.2-2.8-1.8-15.7-6.6-21.8-8.1-9.7-2.4-20.3 5.3-21.3 15.3-0.3 3 1.2 8.3 3.1 10.8 0.9 1.2 2.9 3.1 4.4 4.1 3.1 2.1 19.5 7.9 23.7 8.5 4.9 0.6 12.6-2.7 18.9-8.2l2.6-2.3z" fill="#e0c344"/><g transform="translate(21.311475,3.2786885)"><path d="m-427.5 1773.9c-0.3 0-0.7 0-1 0-1.1 0-2.2 0.2-3.3 0.3-13.8 2.3-24.6 12.1-27.4 25.1-1.4 6.2-1.3 10.9 0.3 17.2 2.6 10.5 7.4 17.5 19.8 28.5 9 8 11 12 13.7 26.8 1.9 10.6 3.4 15.2 7 21 8.4 13.6 23.2 20.3 36.4 16.6 6-1.7 10.6-4.5 15.5-9.5 7.3-7.5 9.9-15 9.2-25.8-0.5-7.9-3.2-15.3-8.1-22.2-1.3-1.8-5.5-6.1-9.4-9.7-12.7-11.4-14.6-14.7-17.2-30.8-1.4-8.7-3.5-14.6-7.1-20.2-6.9-10.8-17.7-17.3-28.3-17.4z" fill="#b5824d"/><path transform="translate(0,52.3622)" d="m-413.9 1735.5c-0.1 0-0.3 0-0.4 0-2.6 0.2-4.9 2.5-4.9 5.6 0 2.8 4.4 11.4 6.5 12.6 2.1 1.3 4.8 0.8 6.8-1.3 1-1.1 1.9-2.7 1.9-3.6 0-2.1-4.9-11-6.7-12.4-1-0.7-2-1-3.1-1zm-22.3 0.1c-0.8 0-1.4 0.3-2.4 1-3.3 2.6-3.4 4.5-0.4 10.2 1.4 2.8 3.3 5.7 4.1 6.4 2.1 1.7 4.9 1.6 7-0.3 2.7-2.4 2.3-5.5-1.2-11.5-2.5-4.2-3.2-5.1-5.3-5.6-0.8-0.2-1.3-0.3-1.8-0.3zm14.1 24.3c-1.5 0-2.9 0.6-3.9 1.7-2.2 2.3-2.1 5.1 0.7 10.2 3.9 7.2 7.2 8.8 10.8 5.1 1.2-1.3 1.9-2.7 1.9-3.9 0-2.1-4.6-10.7-6.4-12.2-0.8-0.6-1.9-0.9-3.1-0.9zm29.2 53.8c-0.4 0.1-0.9 0.2-1.5 0.5-3.8 1.6-4.1 4.6-1.2 10.1 2.5 4.6 3.7 6.2 5.4 6.9 3 1.2 6.5-1.4 6.5-4.9 0-2.9-4.6-10.7-7-11.9-0.7-0.4-1.3-0.6-1.8-0.6-0.1 0-0.3 0-0.4 0z" fill="#754c29"/></g></g></g><g transform="translate(3.6919125e-6,-6830.8571)"><path d="m402.2 771.2 0.5 0.7c0.7 1 0.6 1.9-0.2 2.7-0.8 0.8-1.8 1.3-5.5 2.5-7.2 2.5-10.3 5.4-10.6 10.1-0.1 1.1-0.1 1.9 0 1.9 0.1 0 0.7-0.4 1.3-0.8 3.1-2.3 6-3.4 13.7-5.4 3.2-0.8 6-2.4 6.5-3.9 0.4-1 0.1-2.4-0.6-3.5-0.8-1.2-2.7-3.1-4-3.8l-1-0.6zm8.9 7.8-0.4 0.6c-2.2 3.1-4.3 4.6-8.3 5.7-5.6 1.5-7.8 2.2-9.4 2.9-5.3 2.5-9.1 6.3-10.7 10.7-0.5 1.5-0.8 4.7-0.6 6.3l0.2 1 0.5-0.9c0.6-1.2 3.8-4 5.5-4.9 3-1.6 6.4-2.6 11.8-3.5 9.1-1.6 14.2-6.1 13.6-11.9-0.2-1.5-1-4.1-1.7-5.3l-0.4-0.7zm4.1 11.2c-0.1 0-0.3 0.4-0.5 0.8-0.4 1.2-2.4 3.5-4 4.6-1.7 1.2-4.8 2.7-7 3.2-0.9 0.2-2.8 0.6-4.3 0.9-3.9 0.7-5.9 1.2-8.1 2.2-2.7 1.2-3.8 1.9-5.6 3.6-4 3.8-5.2 9.7-2.9 15l0.5 1.2 0.7-1.1c0.8-1.4 1.8-2.3 3.5-3.3 2.7-1.7 6.6-2.9 11.3-3.6 3.2-0.5 5.2-0.9 7.2-1.5 6.7-2 11.1-5.8 12.2-10.5 0.5-2.4 0.4-4.6-0.5-7.1-0.4-1.2-2.2-4.4-2.4-4.4zm2 19c-0.1 0-0.3 0.2-0.6 0.6-2.2 2.7-7.7 4.8-16.5 6.2-5 0.8-6.3 1.1-8.4 2-5.9 2.5-8.3 6.7-6.5 11.6 0.6 1.5 0.8 1.8 1.8 3.3 0.3 0.4 0.5 0.7 0.5 0.7 0 0 0.3-0.4 0.6-1 1.6-2.9 6-4.8 11.2-4.8 2.1 0 5.6-0.5 7.6-1.1 6.3-1.9 10.2-6.3 10.9-12.5 0.1-1-0.2-3.9-0.5-4.8 0-0.1-0.1-0.2-0.2-0.2zm-2.1 16.6-0.8 0.7c-2.5 2.1-7.2 3.4-13.9 3.7-5.6 0.3-8 1.3-9.5 3.9-0.5 1-0.4 4.1 0.2 5.6 1.1 2.6 3.4 5.4 6.3 7.5 0.8 0.6 1.6 1.1 1.7 1.1 0.1 0 0.2-0.9 0.3-1.9 0.2-3.3 1.6-4.9 5.5-6.1 2.3-0.8 3.7-1.4 5.3-2.8 2.9-2.3 4.7-6.2 5-10.3l0.1-1.4z" class="s2"/><g transform="matrix(0.32655868,0,0,0.32953888,625.04915,208.82006)"><path d="m-746.1 1770.3 4.6 6.3c2.6 3.5 4.5 6.5 4.3 6.6-0.2 0.2-2 0.6-4.1 1-2 0.4-4 0.9-4.4 1.2-0.4 0.3-0.2 3.9 0.4 8.1 1.1 7.6 1.1 7.6-1.6 9.2-8.7 5.1-11.3 7-11.2 8.4 0.1 0.8 1.3 3.1 2.8 5.1 1.5 2 2.5 4.1 2.3 4.7-0.2 0.6-2.6 3.1-5.4 5.7l-5.1 4.6 3.7 5.5 3.7 5.4-3.4 4.7c-1.9 2.6-3.4 5-3.5 5.3 0 0.3 2.7 2.6 6 5.2 3.4 2.5 6.5 5.1 6.9 5.6 0.4 0.6 0.1 4-0.8 7.7-0.9 3.7-1.4 6.9-1.1 7.2 0.2 0.3 2.1 1.1 4.2 1.6 2.1 0.6 5.6 1.7 7.8 2.5l4 1.4 1.2 6.9c1.4 7.6 0.9 7.3 8.8 6 2.7-0.5 5.1-0.6 5.3-0.4 0.2 0.2 1.6 3.8 3.2 7.8l2.9 7.4 5.5-3.6c8.5-5.6 7.7-5.7 12.4 0.7l4.1 5.6 2.1-3.8c1.1-2.1 2.4-4.1 2.9-4.5 0.4-0.3 3.6 0.9 7.1 2.9 3.5 1.9 6.7 3.3 7.3 3.2 0.5-0.2 1.8-2.8 2.9-5.8l1.9-5.5 6.5 1.1c3.6 0.6 6.8 1.3 7.2 1.5 1.1 0.8 1.4 0.2 2.7-6.3l1.3-6.1 6.3 0.3 6.3 0.4 0.6-7.9 0.6-7.8 5.6-0.7c3.1-0.4 5.8-0.8 6.1-1 0.3-0.2-0.1-3.9-0.9-8.2-0.8-4.3-1.1-8-0.8-8.3 0.3-0.3 2.4-0.9 4.6-1.5 2.2-0.6 4.1-1.4 4.1-1.8 0.1-0.4-1.6-3.1-3.7-5.9-4.3-5.9-4.5-5.1 2.8-12.1 2.2-2.1 4.1-4 4.1-4.2 0-0.2-2.7-2.6-6-5.3l-6.1-4.9 0.8-2.7c0.4-1.5 1.5-4.1 2.3-5.8 0.8-1.7 1.5-3.3 1.5-3.4 0-0.2-2.5-1.8-5.6-3.5-3.1-1.7-5.9-3.4-6.3-3.8-0.3-0.4-0.6-4.5-0.7-9.1l-0.1-8.4-7.1-0.2c-3.9-0.1-7.3-0.5-7.5-0.8-0.2-0.3-1.7-3.9-3.2-8.1-1.5-4.1-3.2-7.8-3.7-8.1-0.5-0.3-3 0.5-5.6 1.8l-4.8 2.4-4.1-5.2-4.1-5.2-6.1 4c-3.3 2.2-6.3 3.9-6.6 3.9-0.3 0-2.2-2-4.3-4.5l-3.8-4.4-5.1 4.9c-2.8 2.7-5.6 5.4-6.3 6-0.9 0.8-3.1 0.4-7.7-1.6-7-2.9-7.7-2.8-10.6 2.7l-1.7 3.2-4.7-6.4-4.6-6.3-4.7 3.8-4.7 3.8z" fill="#008000"/><path d="m-725.5 1788.2 4.8-3c14-8.9 32.9-11.4 48.1-6.2 39.8 13.6 53.6 64.8 26.4 97.4-2.4 2.9-5.3 6-6.4 6.9l-2 1.6-35.4-48.3-35.4-48.4z" fill="#fff"/><path d="m-707.6 1787.6c-4.4 3.5-5.8 6.3-5 10.1 0.9 4.4 2.4 6.2 12.2 14.2 8 6.6 9.3 7.9 17.2 18.7 8.4 11.4 8.5 11.7 9.9 17.8 1.1 5.1 2 7.1 5.2 11.5 4.4 6 7.8 8.5 12.7 9.1 4.4 0.6 8.3-2.5 11.2-8.8 8.5-18.3 3-40.5-14.4-58.7-7-7.4-13.1-11.4-21.9-14.4-12.9-4.5-21-4.3-27.1 0.6z" fill="#fad808"/><path d="m-737 1783.2-9.3-13.1 9.7-7.1 9.7 12.8-4.1 4.9z" fill="#724c2f"/></g></g><g transform="translate(3.6919125e-6,-6830.3901)"><path d="m402.2 593.9 0.5 0.7c0.7 1 0.6 1.9-0.2 2.7-0.8 0.8-1.8 1.3-5.5 2.5-7.2 2.5-10.3 5.4-10.6 10.1-0.1 1.1-0.1 1.9 0 1.9 0.1 0 0.7-0.4 1.3-0.8 3.1-2.3 6-3.4 13.7-5.4 3.2-0.8 6-2.4 6.5-3.9 0.4-1 0.1-2.4-0.6-3.5-0.8-1.2-2.7-3.1-4-3.8l-1-0.6zm8.9 7.8-0.4 0.6c-2.2 3.1-4.3 4.6-8.3 5.7-5.6 1.5-7.8 2.2-9.4 2.9-5.3 2.5-9.1 6.3-10.7 10.7-0.5 1.5-0.8 4.7-0.6 6.3l0.2 1 0.5-0.9c0.6-1.2 3.8-4 5.5-4.9 3-1.6 6.4-2.6 11.8-3.5 9.1-1.6 14.2-6.1 13.6-11.9-0.2-1.5-1-4.1-1.7-5.3l-0.4-0.7zm4.1 11.2c-0.1 0-0.3 0.4-0.5 0.8-0.4 1.2-2.4 3.5-4 4.6-1.7 1.2-4.8 2.7-7 3.2-0.9 0.2-2.8 0.6-4.3 0.9-3.9 0.7-5.9 1.2-8.1 2.2-2.7 1.2-3.8 1.9-5.6 3.6-4 3.8-5.2 9.7-2.9 15l0.5 1.2 0.7-1.1c0.8-1.4 1.8-2.3 3.5-3.3 2.7-1.7 6.6-2.9 11.3-3.6 3.2-0.5 5.2-0.9 7.2-1.5 6.7-2 11.1-5.8 12.2-10.5 0.5-2.4 0.4-4.6-0.5-7.1-0.4-1.2-2.2-4.4-2.4-4.4zm2 19c-0.1 0-0.3 0.2-0.6 0.6-2.2 2.7-7.7 4.8-16.5 6.2-5 0.8-6.3 1.1-8.4 2-5.9 2.5-8.3 6.7-6.5 11.6 0.6 1.5 0.8 1.8 1.8 3.3 0.3 0.4 0.5 0.7 0.5 0.7 0 0 0.3-0.4 0.6-1 1.6-2.9 6-4.8 11.2-4.8 2.1 0 5.6-0.5 7.6-1.1 6.3-1.9 10.2-6.3 10.9-12.5 0.1-1-0.2-3.9-0.5-4.8 0-0.1-0.1-0.2-0.2-0.2zm-2.1 16.6-0.8 0.7c-2.5 2.1-7.2 3.4-13.9 3.7-5.6 0.3-8 1.3-9.5 3.9-0.5 1-0.4 4.1 0.2 5.6 1.1 2.6 3.4 5.4 6.3 7.5 0.8 0.6 1.6 1.1 1.7 1.1 0.1 0 0.2-0.9 0.3-1.9 0.2-3.3 1.6-4.9 5.5-6.1 2.3-0.8 3.7-1.4 5.3-2.8 2.9-2.3 4.7-6.2 5-10.3l0.1-1.4z" class="s2"/><g transform="matrix(0.32655868,0,0,0.32953888,522.78187,115.89389)"><path d="m-393.4 1535.1c0.2 0 0.4 0 0.6 0 2.2 0.1 9 0.4 15.3 0.7 7.6 0.3 10.5 1.1 10.7 3.3 0 0.3 0 0.7-0.1 1.1-0.4 2.2-0.8 11.1-1.1 19.9-0.2 8.8-1 17.1-1.8 18.4-0.8 1.3-7.3 2.2-14.7 1.9-15.2-0.5-14.9 0-13.4-26.7 0.8-13.4 1.9-18.2 4.5-18.6zm36 2.2c7.3-0.8 24.5 0.3 25 2.2 0.6 2.4-1.1 41.1-1.8 42.7-0.8 1.7-29.7-1-29.8-2.8-0.1-0.9 0.5-10.3 1.2-20.8 0.8-10.5 1.8-19.6 2.3-20.4 0.3-0.4 1.4-0.7 3.1-0.9zm-37.5 48.2c7.3-1 24.2 0.2 24.8 2.5 0.5 2.2-0.8 40.9-1.4 42.3-0.1 0.3-6.9 0.1-14.9-0.6l-14.7-1.2 1-20.1c0.5-11.1 1.5-20.9 2.1-21.8 0.3-0.5 1.5-0.9 3.2-1.1zm34.1 0.9c0.2 0 0.4 0 0.6 0 2.2 0.1 9 0.4 15.3 0.7 7.6 0.3 10.5 1.1 10.7 3.3 0 0.3 0 0.7-0.1 1.1-0.4 2.2-0.8 11.1-1.1 19.9-0.2 8.8-1 17.1-1.8 18.4-0.8 1.3-7.4 2.2-14.7 1.9-15.2-0.5-14.9 0-13.4-26.7 0.8-13.4 1.9-18.2 4.5-18.6zm61 4.5c0.6 2.5-1 41.1-1.7 42.5-0.8 1.5-29.8-1.1-30-2.7-0.1-0.9 0.5-10.2 1.3-20.7 0.8-10.5 1.8-19.6 2.3-20.4 4-2.2 27-0.6 28.1 1.4z" fill="#803300"/><path d="m-356.3 1537.2-13.6-25-20.1 6.8-20.1 6.8 1 2.9c1.1 3.4-2.8 11.1-6.2 12.3-3.2 1.1-9.7-0.2-11.3-2.3-0.8-0.9-1.7-2.7-2.2-4-0.7-2.1-1.7-2-12.2 1.6l-11.5 3.9 7.5 22c7.4 21.6 7.5 22 10.4 22.3 4.6 0.5 7 6.8 4.1 10.8-2.2 3-2.1 3.3 2.6 17.3l4.9 14.3 15.4 3.8c1.7-3.7 2.2-6.9 2.4-9.8 0.2-2.9-1.4-5.6-1.2-8.2 0.3-2.6 3.5-4.7 4.5-8.1 2.7-9 5.4-5.9 10.9-9.3 8.7-5.5-2.6-15.6 0.9-21.8 3.5-6.2 11.3-4.9 15.2-13.9 0.8-1.8 5.3-6.6 6-8.1 0.7-1.6-5.7-6.4 3.1-9.1 2-0.6 3.3 1.7 4.9 0.1 1.6-1.6 3.2-3.3 4.5-5.2zm-53.6 34.3c-1.4 0.5-3.2 0.1-5.6-1.2-4.6-2.4-5.8-5.4-3.9-9.9 2.6-6.1 9.6-6.4 13.3-0.5 1.4 2.3 1.4 3.9 0 7.1-1.2 2.5-2.3 4-3.7 4.5zm34.5-38.8c-3.5 1.3-8.1-0.2-9.5-4.3-0.4-1.3-0.5-3.5 0-4.8 1.5-4.5 5-5.9 9.3-3.7 4.5 2.4 5.3 4 4.1 8.5-0.6 2.2-2.1 3.6-3.9 4.2z" fill="#efa019"/></g></g><g transform="translate(3.6919125e-6,-6827.4562)"><path d="m402.2 237.3 0.5 0.7c0.7 1 0.6 1.9-0.2 2.7-0.8 0.8-1.8 1.3-5.5 2.5-7.2 2.5-10.3 5.4-10.6 10.1-0.1 1.1-0.1 1.9 0 1.9 0.1 0 0.7-0.4 1.3-0.8 3.1-2.3 6-3.4 13.7-5.4 3.2-0.8 6-2.4 6.5-3.9 0.4-1 0.1-2.4-0.6-3.5-0.8-1.2-2.7-3.1-4-3.8l-1-0.6zm8.9 7.8-0.4 0.6c-2.2 3.1-4.3 4.6-8.3 5.7-5.6 1.5-7.8 2.2-9.4 2.9-5.3 2.5-9.1 6.3-10.7 10.7-0.5 1.5-0.8 4.7-0.6 6.3l0.2 1 0.5-0.9c0.6-1.2 3.8-4 5.5-4.9 3-1.6 6.4-2.6 11.8-3.5 9.1-1.6 14.2-6.1 13.6-11.9-0.2-1.5-1-4.1-1.7-5.3l-0.4-0.7zm4.1 11.2c-0.1 0-0.3 0.4-0.5 0.8-0.4 1.2-2.4 3.5-4 4.6-1.7 1.2-4.8 2.7-7 3.2-0.9 0.2-2.8 0.6-4.3 0.9-3.9 0.7-5.9 1.2-8.1 2.2-2.7 1.2-3.8 1.9-5.6 3.6-4 3.8-5.2 9.7-2.9 15l0.5 1.2 0.7-1.1c0.8-1.4 1.8-2.3 3.5-3.3 2.7-1.7 6.6-2.9 11.3-3.6 3.2-0.5 5.2-0.9 7.2-1.5 6.7-2 11.1-5.8 12.2-10.5 0.5-2.4 0.4-4.6-0.5-7.1-0.4-1.2-2.2-4.4-2.4-4.4zm2 19c-0.1 0-0.3 0.2-0.6 0.6-2.2 2.7-7.7 4.8-16.5 6.2-5 0.8-6.3 1.1-8.4 2-5.9 2.5-8.3 6.7-6.5 11.6 0.6 1.5 0.8 1.8 1.8 3.3 0.3 0.4 0.5 0.7 0.5 0.7 0 0 0.3-0.4 0.6-1 1.6-2.9 6-4.8 11.2-4.8 2.1 0 5.6-0.5 7.6-1.1 6.3-1.9 10.2-6.3 10.9-12.5 0.1-1-0.2-3.9-0.5-4.8 0-0.1-0.1-0.2-0.2-0.2zm-2.1 16.6-0.8 0.7c-2.5 2.1-7.2 3.4-13.9 3.7-5.6 0.3-8 1.3-9.5 3.9-0.5 1-0.4 4.1 0.2 5.6 1.1 2.6 3.4 5.4 6.3 7.5 0.8 0.6 1.6 1.1 1.7 1.1 0.1 0 0.2-0.9 0.3-1.9 0.2-3.3 1.6-4.9 5.5-6.1 2.3-0.8 3.7-1.4 5.3-2.8 2.9-2.3 4.7-6.2 5-10.3l0.1-1.4z" class="s2"/><path d="m415.6 259.8c-0.1 0-0.1 0-0.2 0-0.7 0-3 0.1-5.1 0.1-2.5 0.1-3.5 0.3-3.6 1 0 0.1 0 0.2 0 0.4 0.1 0.7 0.1 3.7 0.1 6.6-0.1 2.9 0.1 5.7 0.3 6.1 0.3 0.4 2.4 0.8 4.9 0.7 5.1-0.1 5 0.1 4.9-8.8-0.1-4.5-0.4-6.1-1.2-6.2zm-12.1 0.5c-2.4-0.3-8.2 0-8.4 0.6-0.2 0.8-0.2 13.6 0 14.1 0.2 0.6 10-0.2 10-0.7 0-0.3 0-3.4-0.1-6.9-0.1-3.5-0.3-6.5-0.5-6.8-0.1-0.1-0.5-0.2-1-0.3zm-10.5 0.2-4.8 0.1c-2.6 0-4.9 0.1-5 0.2-0.2 0.1-0.2 14.4 0.1 14.7 0.1 0.1 2.3 0.1 4.8 0 5.3-0.2 5.2-0.1 5-8.8l-0.1-6.2zm22.3 16.1c-2.4-0.4-8.1-0.1-8.3 0.7-0.2 0.7-0.3 13.6-0.1 14 0 0.1 2.3 0.1 5-0.1l5-0.3 0-6.7c0-3.7-0.2-6.9-0.4-7.3-0.1-0.2-0.5-0.3-1.1-0.4zm-11.5 0.1c-0.1 0-0.1 0-0.2 0-0.7 0-3 0.1-5.1 0.1-2.5 0.1-3.5 0.3-3.6 1 0 0.1 0 0.2 0 0.4 0.1 0.7 0.1 3.7 0.1 6.6-0.1 2.9 0.1 5.7 0.3 6.1 0.3 0.4 2.4 0.8 4.9 0.7 5.1-0.1 5 0.1 4.9-8.8-0.1-4.5-0.4-6.1-1.2-6.2zm-12.1 0.5c-2.4-0.3-8.2 0-8.4 0.6-0.2 0.8-0.3 13.6-0.1 14.1 0.3 0.5 10-0.2 10.1-0.7 0-0.3 0-3.4-0.1-6.9-0.1-3.5-0.3-6.5-0.5-6.8-0.1-0.1-0.5-0.3-1-0.3z" fill="#803300"/></g><path d="m430.5-6944 0.5 0.7c0.7 1 0.6 1.9-0.2 2.7-0.8 0.8-1.8 1.3-5.5 2.5-7.2 2.5-10.3 5.4-10.6 10.1-0.1 1.1-0.1 1.9 0 1.9 0.1 0 0.7-0.4 1.3-0.8 3.1-2.3 6-3.4 13.7-5.4 3.2-0.8 6-2.4 6.5-3.9 0.4-1 0.1-2.4-0.6-3.5-0.8-1.2-2.7-3.1-4-3.8l-1-0.6zm8.9 7.8-0.4 0.6c-2.2 3.1-4.3 4.6-8.3 5.7-5.6 1.5-7.8 2.2-9.4 2.9-5.3 2.5-9.1 6.3-10.7 10.7-0.5 1.5-0.8 4.7-0.6 6.3l0.2 1 0.5-0.9c0.6-1.2 3.8-4 5.5-4.9 3-1.6 6.4-2.6 11.8-3.5 9.1-1.6 14.2-6.1 13.6-11.9-0.2-1.5-1-4.1-1.7-5.3l-0.4-0.7zm4.1 11.2c-0.1 0-0.3 0.4-0.5 0.8-0.4 1.2-2.4 3.5-4 4.6-1.7 1.2-4.8 2.7-7 3.2-0.9 0.2-2.8 0.6-4.3 0.9-3.9 0.7-5.9 1.2-8.1 2.2-2.7 1.2-3.8 1.9-5.6 3.6-4 3.8-5.2 9.7-2.9 15l0.5 1.2 0.7-1.1c0.8-1.4 1.8-2.3 3.5-3.3 2.7-1.7 6.6-2.9 11.3-3.6 3.2-0.5 5.2-0.9 7.2-1.5 6.7-2 11.1-5.8 12.2-10.5 0.5-2.4 0.4-4.6-0.5-7.1-0.4-1.2-2.2-4.4-2.4-4.4zm2 19c-0.1 0-0.3 0.2-0.6 0.6-2.2 2.7-7.7 4.8-16.5 6.2-5 0.8-6.3 1.1-8.4 2-5.9 2.5-8.3 6.7-6.5 11.6 0.6 1.5 0.8 1.8 1.8 3.3 0.3 0.4 0.5 0.7 0.5 0.7 0 0 0.3-0.4 0.6-1 1.6-2.9 6-4.8 11.2-4.8 2.1 0 5.6-0.5 7.6-1.1 6.3-1.9 10.2-6.3 10.9-12.5 0.1-1-0.2-3.9-0.5-4.8 0-0.1-0.1-0.2-0.2-0.2zm-2.1 16.6-0.8 0.7c-2.5 2.1-7.2 3.4-13.9 3.7-5.6 0.3-8 1.3-9.5 3.9-0.5 1-0.4 4.1 0.2 5.6 1.1 2.6 3.4 5.4 6.3 7.5 0.8 0.6 1.6 1.1 1.7 1.1 0.1 0 0.2-0.9 0.3-1.9 0.2-3.3 1.6-4.9 5.5-6.1 2.3-0.8 3.7-1.4 5.3-2.8 2.9-2.3 4.7-6.2 5-10.3l0.1-1.4z" fill="#ffd42a"/><text xml:space="preserve" x="381.3" y="-7205.1" transform="scale(1.042251,0.95946177)" style="fill:#ccc;font-family:Sans;font-size:15.3;letter-spacing:0;line-height:96;word-spacing:0"><tspan x="381" y="-7205.1" class="s5">Molen</tspan><tspan x="381" y="-7190.4" class="s5">Arab</tspan></text><path d="m398.2-4640c-1.1-1-1.1-0.2-0.4-12.7 0.3-5.2 0.5-9.9 0.4-10.5-0.2-1.5-1.2-3-3.4-5.4-2.9-3.1-2.8-2.8-2.9-7.7-0.1-4.9 0.3-8.9 0.9-9.7 0.7-0.9 2.3-1.2 7.2-1.2 4.9 0 6.5 0.3 7.2 1.2 0.6 0.8 1 4.8 0.9 9.7-0.1 4.9 0 4.6-2.9 7.7-2.3 2.4-3.2 3.9-3.4 5.5-0.1 0.6 0.1 5.3 0.4 10.4 0.8 12.3 0.8 11.6-0.4 12.6-0.7 0.6-1.2 0.8-1.8 0.8-0.6 0-1.1-0.2-1.8-0.8zm2.6-33.2c0.2-0.2 0.3-2 0.2-5.9-0.1-5-0.1-5.6-0.5-5.9-0.3-0.2-0.6-0.2-0.9 0-0.4 0.2-0.5 0.8-0.5 5.9-0.1 5.8 0 6.3 1 6.3 0.3 0 0.6-0.1 0.8-0.3zm-4.1-1.1c0.2-0.3 0.3-2.4 0.3-5.1 0-5.1-0.1-5.6-1.4-5.4l-0.7 0.1-0.1 4.9c0 2.7 0 5.2 0.1 5.5 0.2 0.7 1.4 0.7 1.8 0.1zm8.3-0.1c0.1-0.3 0.1-2.8 0.1-5.5l-0.1-4.9-0.7-0.1c-1.2-0.2-1.4 0.4-1.4 5.4 0 2.8 0.1 4.9 0.3 5.1 0.4 0.7 1.6 0.6 1.8-0.1z" fill="#ccc"/></g></svg>